<svg xmlns="http://www.w3.org/2000/svg" viewBox="0 0 800 600">
  <defs>
    <linearGradient id="a" x1="400" y1="0" x2="400" y2="600" gradientUnits="userSpaceOnUse">
      <stop offset="0" stop-color="#e0f2fe"/>
      <stop offset="1" stop-color="#f0f9ff"/>
    </linearGradient>
    <linearGradient id="b" x1="400" y1="0" x2="400" y2="600" gradientUnits="userSpaceOnUse">
      <stop offset="0" stop-color="#f0f9ff"/>
      <stop offset="1" stop-color="#e0f2fe"/>
    </linearGradient>
  </defs>
  <rect width="800" height="600" fill="url(#a)"/>
  <g transform="translate(100 100)">
    <!-- Cloud background -->
    <path d="M580,230 C640,220 680,270 680,330 C680,390 640,440 580,450 L180,450 C120,440 80,390 80,330 C80,270 120,220 180,230 C200,180 250,150 300,150 C350,150 400,180 420,230 Z" fill="url(#b)" opacity="0.8"/>
    
    <!-- Astronaut -->
    <g class="astronaut" transform="translate(300 200)">
      <circle cx="0" cy="-15" r="25" fill="#f8fafc"/>
      <circle cx="0" cy="0" r="40" fill="#f8fafc"/>
      <circle cx="-12" cy="-20" r="4" fill="#334155"/>
      <circle cx="12" cy="-20" r="4" fill="#334155"/>
      <path d="M-5,-10 C-5,-5 5,-5 5,-10" stroke="#334155" stroke-width="2" fill="none"/>
      <rect x="-30" y="30" width="60" height="40" rx="10" fill="#f1f5f9"/>
      <rect x="-20" y="70" width="40" height="20" rx="5" fill="#f1f5f9"/>
      <rect x="-15" y="90" width="15" height="20" rx="5" fill="#f1f5f9"/>
      <rect x="0" y="90" width="15" height="20" rx="5" fill="#f1f5f9"/>
      <circle cx="-20" cy="40" r="8" fill="#cbd5e1"/>
      <circle cx="20" cy="40" r="8" fill="#cbd5e1"/>
      <rect x="-40" y="40" width="20" height="10" rx="5" fill="#e2e8f0"/>
      <rect x="20" y="40" width="20" height="10" rx="5" fill="#e2e8f0"/>
    </g>
    
    <!-- Planet -->
    <circle cx="500" cy="300" r="80" fill="#fde68a" opacity="0.8"/>
    <circle cx="480" cy="280" r="15" fill="#f59e0b"/>
    <circle cx="520" cy="330" r="10" fill="#f59e0b"/>
    <circle cx="530" cy="280" r="8" fill="#f59e0b"/>
    
    <!-- Stars -->
    <g class="stars">
      <circle cx="100" cy="100" r="2" fill="#fff"/>
      <circle cx="200" cy="50" r="1.5" fill="#fff"/>
      <circle cx="300" cy="150" r="2" fill="#fff"/>
      <circle cx="400" cy="80" r="1.5" fill="#fff"/>
      <circle cx="500" cy="120" r="2" fill="#fff"/>
      <circle cx="600" cy="60" r="1.5" fill="#fff"/>
      <circle cx="700" cy="140" r="2" fill="#fff"/>
    </g>
    
    <!-- 404 Text -->
    <text x="400" y="500" text-anchor="middle" font-family="Arial" font-size="100" font-weight="bold" fill="#0ea5e9" opacity="0.1">404</text>
  </g>
</svg>