<svg width="24" height="24" viewBox="0 0 24 24" fill="none" xmlns="http://www.w3.org/2000/svg">
  <path d="M22.46 6.011C21.69 6.34 20.86 6.561 20 6.671C20.88 6.101 21.55 5.221 21.88 4.181C21.05 4.711 20.13 5.101 19.14 5.311C18.35 4.471 17.22 4 16 4C13.66 4 11.77 5.89 11.77 8.24C11.77 8.56 11.8 8.87 11.87 9.17C8.28 8.99 5.11 7.25 2.99 4.66C2.62 5.27 2.41 5.98 2.41 6.73C2.41 8.14 3.14 9.39 4.26 10.1C3.57 10.08 2.92 9.9 2.35 9.6V9.66C2.35 11.67 3.81 13.35 5.74 13.72C5.38 13.82 4.99 13.87 4.59 13.87C4.3 13.87 4.02 13.84 3.75 13.79C4.32 15.45 5.9 16.67 7.77 16.7C6.32 17.81 4.51 18.44 2.56 18.44C2.24 18.44 1.93 18.42 1.63 18.39C3.52 19.58 5.77 20.25 8.2 20.25C16 20.25 20.46 13.94 20.46 8.7C20.46 8.52 20.46 8.35 20.45 8.18C21.28 7.59 22 6.86 22.46 6.01Z" fill="currentColor"/>
</svg>
