<?xml version="1.0" encoding="UTF-8"?>
<svg id="Layer_1" data-name="Layer 1" xmlns="http://www.w3.org/2000/svg" viewBox="0 0 1080 1080">
  <path d="M487.62,217.11c359.42-34.82,501.13,433.28,195.18,599.8-232.1,126.33-490.87-59.85-470.5-316.81,11.05-139.48,135.46-269.44,275.32-282.99ZM632.54,363.57c-12.96-38.11-56.1-107.21-101.97-106.89-43.92.31-87.93,70.42-98.8,108.46,66.08,13.57,134.81,12.57,200.77-1.57ZM453.75,260.12c-4.44-4.15-73.09,32.02-82.5,38.22-7.58,4.99-28.37,20.03-33.62,25.98-2.41,2.73-4.04,3.5-3.04,7.88,11.61,2.25,53.59,27.16,62.33,21.62l19.82-41.36,37.01-52.35ZM610.59,263.27c18.52,9.19,49.27,84.98,56.42,89.48,9.11,5.74,47.23-15.07,56.51-22.15,2.75-11.95-93.76-71.71-112.93-67.33ZM362.8,520.44c.84-44.04,6.77-88.61,21.53-130.25l-73.44-32.88c-12.74.31-42.78,67.03-47.67,80.82-9.23,26.05-16.23,54.51-16.48,82.32h116.05ZM814.47,517.3c-2.06-31.01-9.56-61.33-21.41-89.93-5.04-12.15-33.62-70.17-45.98-70.07-9.18.07-50.44,32.87-67.5,28.29,10.57,44.33,20.65,88.93,22,134.84,3.41,1.21,6.87-3.13,7.82-3.13h105.08ZM647.93,398.44c-77.41,10.33-154.46,14.33-231.71-.25-9.88,40.07-19.9,80.48-18.93,122.27l269.58-3.32c.82-40.48-10.03-79.73-18.94-118.69ZM362.8,551.81h-116.05c3.75,56.95,24.58,115.94,61.57,159.53l76.46-30.98c-14.34-41.21-20.99-84.96-21.98-128.56ZM667.05,551.81h-269.75c-1.12,40.58,8.54,80.41,18.96,119.12,75.44-16.71,154.6-17.75,230.03.28,7.08-1.12,23.67-105.36,20.75-119.4ZM814.47,551.81h-112.92c-2.34,42.9-7.5,86.14-21.69,126.77l73.03,32.76c37.59-43.56,59.3-102.06,61.57-159.53ZM635.68,702.38c-60.38-10.04-135.1-18.21-195.14-2.26-5.44,1.44-11.2,1.95-14.93,6.93,17.22,41.35,56.54,110.69,108.18,108.44,45.12-1.97,90.14-73.47,101.9-113.1ZM610.59,808.97c19.26,1.56,118.92-58.13,116.06-70.46l-56.41-26.75c-11.61,37.06-33.27,69.13-59.65,97.22ZM393.88,715.18c-7.11-5.11-47.4,15.15-55.36,20.86-1.69,1.22-5.99.03-3.86,5.42,7.09,17.88,92.28,67.14,115.97,67.52-26.01-26.21-45.48-58.37-56.75-93.79Z"/>
</svg>