<?xml version="1.0" encoding="UTF-8"?>
<svg id="Layer_1" data-name="Layer 1" xmlns="http://www.w3.org/2000/svg" viewBox="0 0 1080 1080">
  <path d="M417.03,777.04l-7.16-3.65c-18.56,10.99-37.82,45.43-62.2,37.2-28.32-9.56,19.03-67.72,36.57-71.69l.67-4.84c-42.66-66.23-99.93-134.41-130-207.62-84.14-204.87,105.31-403.33,314.7-332.64,141.35,47.72,202.67,200.41,147.02,337.34-14.63,36-41.65,66.17-55.09,101.6l135.92,144.28c18.7,32.52-2.81,39.32-32.3,30.54-4.15,31.89,8.69,67.17,2.11,98.09-1.94,9.13-2.64,15.38-12.68,18.75l-326.73-.28c-2.19-2-10.84-9.7-10.84-10.7v-136.37ZM470.12,223.66c-121.07,6.94-199.73,112.93-189.6,230.52,6.72,78.01,113.65,221.67,165.32,283.28,6.14,7.33,31.08,37.91,37.58,37.91,15.65,0,105.61-122.46,119.56-142.55,66.43-95.61,128.59-189.52,63.54-306.25-38.87-69.75-117.2-107.45-196.4-102.92ZM722.08,882.91v-120.23c-27.53-23.46-55.3-68.08-84.26-88.01-3.02-2.08-3.76-4.9-8.99-3.48-5.18,12.63-15.37,24.7-23.77,35.49-18.6,23.92-61.37,85.56-82.19,100.84-21.28,15.62-38.69,17.27-62.79,7.2v62.8l5.38,5.38h78.95l5.38-5.38v-75.37c0-1.41,4.18-8.08,6.04-9.23,8.96-5.56,90.59-5.67,97.21,1.09.72.73,8,17.88,8,18.91v69.98h61.01ZM614.41,832.67h-21.53v50.24h21.53v-50.24Z"/>
  <path d="M459.17,313.16c186.62-29.43,188.1,245.34,10.28,224.84-128.97-14.87-126.06-206.59-10.28-224.84ZM473.49,356.22c-88.18,14.81-67.68,154.32,27.02,138.22,86.95-14.79,67.7-154.12-27.02-138.22Z"/>
</svg>