<?xml version="1.0" encoding="UTF-8"?>
<svg id="Layer_1" data-name="Layer 1" xmlns="http://www.w3.org/2000/svg" viewBox="0 0 1080 1080">
  <path d="M540.23,230.66c248.4-22.15,418.79,244.05,301.16,462-113.96,211.16-421.07,209.77-537.21,1.08-106.34-191.08,15.12-443.37,236.05-463.07ZM543.33,270.86c-211.2,19.84-313.34,281.57-178.68,442.82,130.81,156.64,383.23,119.28,456.93-71.78,72.77-188.66-76.21-390.02-278.25-371.04Z"/>
  <path d="M543.14,366.56c78.71-12.24,158.13,41.49,144.78,126.23-10,63.46-85.88,82.88-93.78,119.64-3.01,14.03,2.2,32.65-21.29,33.94-33.35,1.84-23.58-46.73-14-66.14,22.57-45.74,104.55-57.56,82.48-124.68-18.94-57.61-112.02-64.16-136.06-9.31-7.45,17-3.82,46-27.84,45.94-30.89-.08-22.78-38.87-15.41-58.26,12.04-31.69,47.3-62.08,81.12-67.34Z"/>
  <path d="M564.72,678.86c49.1-11.06,45.6,65.81-2.39,50.53-21.73-6.92-20.83-45.3,2.39-50.53Z"/>
</svg>