<?xml version="1.0" encoding="UTF-8"?>
<svg id="Layer_1" data-name="Layer 1" xmlns="http://www.w3.org/2000/svg" viewBox="0 0 1080 1080">
  <path d="M471.64,205.8l189.71,76.42,165.5-72.47c12.81-6.15,24.1,3.65,23.39,17.12l-1.71,477.08-7.58,7.27-176.82,75.81-21.54-1.87-180.3-71.02-195.97,73.11-7.89-4.25-2.07-486.99c2.84-9.74,25.7-17.2,35.14-21.32,58.64-25.62,120.21-46.44,180.15-68.9ZM291.4,314.72v427.91l52.09-23.61c-1.82-23.16-.99-51.97,2.23-75.11,7.65-54.93,49.97-85.51,99.8-100.78l6.31-293.78-160.44,65.37ZM481.57,546.52c16.72,1.6,29.84-.78,41.75-13.25,20.07-21.04,4.01-46.31,26.63-71.43,32.41-36,89.36-15.16,95.18-83.12.84-9.84,1.4-61.83-3.05-65.5l-150.1-63.9-10.4,297.2ZM481.58,579.19v102.52l163.44,66.86v-254.07c0-16.83,35.66-14.7,35.66,2.97v245.15l133.24-61.4,3.43-425.93-130.77,57.89c-6.19,6.95-1.95,44.12-2.81,56.62-2.68,38.89-16.48,77.39-53.95,94.63-16.4,7.54-41.87,7.74-53.19,21.1-9.6,11.32-3.89,20.58-6.14,32.49-7.45,39.36-48.65,72.34-88.91,61.16ZM377.58,663.88c-1.48,14.63,1.07,31.19,0,46.06l63.95-26.69c3.49-24.12.34-48.76,1.31-72.98.17-4.36,8.11-30.67-1.27-28.03-8.64,2.43-35.34,19.67-41.81,26.56-12.16,12.95-20.42,37.7-22.17,55.09Z"/>
</svg>